{
  "accessors": [
    {
      "bufferView": 2,
      "componentType": 5126,
      "count": 4046,
      "max": [
        89.90010070800781,
        121.20000457763672,
        183.11036682128906
      ],
      "min": [
        -87.81194305419922,
        -171.94873046875,
        0.00174713134765625
      ],
      "type": "VEC3"
    },
    {
      "bufferView": 2,
      "byteOffset": 48552,
      "componentType": 5126,
      "count": 4046,
      "max": [
        1.0,
        1.0,
        1.0
      ],
      "min": [
        -1.0,
        -1.0,
        -1.0
      ],
      "type": "VEC3"
    },
    {
      "bufferView": 3,
      "componentType": 5126,
      "count": 4046,
      "max": [
        1.0,
        1.0,
        1.0,
        1.0
      ],
      "min": [
        -1.0,
        -1.0,
        -1.0,
        -1.0
      ],
      "type": "VEC4"
    },
    {
      "bufferView": 1,
      "componentType": 5126,
      "count": 4046,
      "max": [
        1.837890625,
        0.9952926635742188
      ],
      "min": [
        0.0006985664367675781,
        0.00439453125
      ],
      "type": "VEC2"
    },
    {
      "bufferView": 1,
      "byteOffset": 32368,
      "componentType": 5126,
      "count": 4046,
      "max": [
        1.837890625,
        0.9952926635742188
      ],
      "min": [
        0.0006985664367675781,
        0.00439453125
      ],
      "type": "VEC2"
    },
    {
      "bufferView": 0,
      "componentType": 5125,
      "count": 7761,
      "type": "SCALAR"
    },
    {
      "bufferView": 2,
      "byteOffset": 97104,
      "componentType": 5126,
      "count": 1532,
      "max": [
        87.65892791748047,
        119.63423919677734,
        188.10768127441406
      ],
      "min": [
        -87.57118225097656,
        -169.88653564453125,
        13.370201110839844
      ],
      "type": "VEC3"
    },
    {
      "bufferView": 2,
      "byteOffset": 115488,
      "componentType": 5126,
      "count": 1532,
      "max": [
        1.0,
        1.0,
        1.0
      ],
      "min": [
        -1.0,
        -1.0,
        -1.0
      ],
      "type": "VEC3"
    },
    {
      "bufferView": 3,
      "byteOffset": 64736,
      "componentType": 5126,
      "count": 1532,
      "max": [
        1.0,
        1.0,
        1.0,
        1.0
      ],
      "min": [
        -1.0,
        -1.0,
        -1.0,
        -1.0
      ],
      "type": "VEC4"
    },
    {
      "bufferView": 1,
      "byteOffset": 64736,
      "componentType": 5126,
      "count": 1532,
      "max": [
        1.994140625,
        0.9953727722167969
      ],
      "min": [
        0.00394439697265625,
        0.00439453125
      ],
      "type": "VEC2"
    },
    {
      "bufferView": 1,
      "byteOffset": 76992,
      "componentType": 5126,
      "count": 1532,
      "max": [
        1.994140625,
        0.9953727722167969
      ],
      "min": [
        0.00394439697265625,
        0.00439453125
      ],
      "type": "VEC2"
    },
    {
      "bufferView": 0,
      "byteOffset": 31044,
      "componentType": 5125,
      "count": 3264,
      "type": "SCALAR"
    }
  ],
  "asset": {
    "extras": {
      "author": "Ahmed (https://sketchfab.com/fakeahmed09)",
      "license": "CC-BY-4.0 (http://creativecommons.org/licenses/by/4.0/)",
      "source": "https://sketchfab.com/3d-models/grand-piano-820675636b69403daaf19719e02ad31d",
      "title": "grand Piano"
    },
    "generator": "Sketchfab-11.66.0",
    "version": "2.0"
  },
  "bufferViews": [
    {
      "buffer": 0,
      "byteLength": 44100,
      "name": "floatBufferViews",
      "target": 34963
    },
    {
      "buffer": 0,
      "byteLength": 89248,
      "byteOffset": 44100,
      "byteStride": 8,
      "name": "floatBufferViews",
      "target": 34962
    },
    {
      "buffer": 0,
      "byteLength": 133872,
      "byteOffset": 133348,
      "byteStride": 12,
      "name": "floatBufferViews",
      "target": 34962
    },
    {
      "buffer": 0,
      "byteLength": 89248,
      "byteOffset": 267220,
      "byteStride": 16,
      "name": "floatBufferViews",
      "target": 34962
    }
  ],
  "buffers": [
    {
      "byteLength": 356468,
      "uri": "scene.bin"
    }
  ],
  "images": [
    {
      "uri": "textures/MI_Furn_GrandPiano_01_A_01_baseColor.png"
    },
    {
      "uri": "textures/MI_Furn_GrandPiano_01_A_01_normal.png"
    },
    {
      "uri": "textures/MI_Furn_GrandPiano_01_A_02_baseColor.png"
    },
    {
      "uri": "textures/MI_Furn_GrandPiano_01_A_02_normal.png"
    }
  ],
  "materials": [
    {
      "doubleSided": true,
      "name": "MI_Furn_GrandPiano_01_A_01",
      "normalTexture": {
        "index": 1
      },
      "pbrMetallicRoughness": {
        "baseColorTexture": {
          "index": 0
        },
        "metallicFactor": 0.0,
        "roughnessFactor": 0.6
      }
    },
    {
      "doubleSided": true,
      "name": "MI_Furn_GrandPiano_01_A_02",
      "normalTexture": {
        "index": 3
      },
      "pbrMetallicRoughness": {
        "baseColorTexture": {
          "index": 2
        },
        "metallicFactor": 0.0,
        "roughnessFactor": 0.6
      }
    }
  ],
  "meshes": [
    {
      "name": "ST_Furn_GrandPiano_01_A_MI_Furn_GrandPiano_01_A_01_0",
      "primitives": [
        {
          "attributes": {
            "NORMAL": 1,
            "POSITION": 0,
            "TANGENT": 2,
            "TEXCOORD_0": 3,
            "TEXCOORD_1": 4
          },
          "indices": 5,
          "material": 0,
          "mode": 4
        }
      ]
    },
    {
      "name": "ST_Furn_GrandPiano_01_A_MI_Furn_GrandPiano_01_A_02_0",
      "primitives": [
        {
          "attributes": {
            "NORMAL": 7,
            "POSITION": 6,
            "TANGENT": 8,
            "TEXCOORD_0": 9,
            "TEXCOORD_1": 10
          },
          "indices": 11,
          "material": 1,
          "mode": 4
        }
      ]
    }
  ],
  "nodes": [
    {
      "children": [
        1
      ],
      "matrix": [
        1.0,
        0.0,
        0.0,
        0.0,
        0.0,
        2.220446049250313e-16,
        -1.0,
        0.0,
        0.0,
        1.0,
        2.220446049250313e-16,
        0.0,
        0.0,
        0.0,
        0.0,
        1.0
      ],
      "name": "Sketchfab_model"
    },
    {
      "children": [
        2
      ],
      "matrix": [
        0.02539999969303608,
        0.0,
        0.0,
        0.0,
        0.0,
        0.0,
        0.02539999969303608,
        0.0,
        0.0,
        -0.02539999969303608,
        0.0,
        0.0,
        0.0,
        0.0,
        0.0,
        1.0
      ],
      "name": "ST_Furn_GrandPiano_01_A.fbx"
    },
    {
      "children": [
        3
      ],
      "name": "RootNode"
    },
    {
      "children": [
        4,
        5
      ],
      "matrix": [
        1.0,
        0.0,
        0.0,
        0.0,
        0.0,
        2.220446049250313e-16,
        -1.0,
        0.0,
        0.0,
        1.0,
        2.220446049250313e-16,
        0.0,
        0.0,
        -0.00174713134765625,
        0.0,
        1.0
      ],
      "name": "ST_Furn_GrandPiano_01_A"
    },
    {
      "mesh": 0,
      "name": "ST_Furn_GrandPiano_01_A_MI_Furn_GrandPiano_01_A_01_0"
    },
    {
      "mesh": 1,
      "name": "ST_Furn_GrandPiano_01_A_MI_Furn_GrandPiano_01_A_02_0"
    }
  ],
  "samplers": [
    {
      "magFilter": 9729,
      "minFilter": 9987,
      "wrapS": 10497,
      "wrapT": 10497
    }
  ],
  "scene": 0,
  "scenes": [
    {
      "name": "Sketchfab_Scene",
      "nodes": [
        0
      ]
    }
  ],
  "textures": [
    {
      "sampler": 0,
      "source": 0
    },
    {
      "sampler": 0,
      "source": 1
    },
    {
      "sampler": 0,
      "source": 2
    },
    {
      "sampler": 0,
      "source": 3
    }
  ]
}
